<svg width="24" height="24" xmlns="http://www.w3.org/2000/svg"><path d="M12.025124 10.560663l-3.38576-3.630784c-.376658-.403915-1.009437-.426012-1.413353-.049355-.403915.376657-.426012 1.009437-.049355 1.413352l3.433392 3.681862-3.559795 3.559796c-.390525.390524-.390525 1.02369 0 1.414214.390524.390524 1.023689.390524 1.414213 0l3.51041-3.51041 3.38576 3.630783c.376658.403915 1.009437.426012 1.413353.049355.403915-.376657.426012-1.009437.049355-1.413352l-3.433392-3.681862 3.559796-3.559796c.390524-.390524.390524-1.02369 0-1.414213-.390525-.390525-1.02369-.390525-1.414214 0l-3.51041 3.51041zM12 24C5.372583 24 0 18.627417 0 12S5.372583 0 12 0s12 5.372583 12 12-5.372583 12-12 12z" fill="#F52D2D" fill-rule="evenodd"/></svg>