<?xml version="1.0" encoding="UTF-8"?>
<svg width="406px" height="512px" viewBox="0 0 406 512" version="1.1" xmlns="http://www.w3.org/2000/svg" xmlns:xlink="http://www.w3.org/1999/xlink">
    <title>teal balloon</title>
    <g id="----------Release-5---Stockfeed-entry" stroke="none" stroke-width="1" fill="none" fill-rule="evenodd">
        <g id="Tech_problem-Copy" transform="translate(-931.000000, -548.000000)" fill="#009E8E">
            <g id="02.-Atoms-⚛️/Icons/Other/Balloon" transform="translate(931.000000, 548.000000)">
                <path d="M406,202.9824 C406,90.878316 315.113804,0 203,0 C90.8861958,0 0,90.878316 0,202.9824 C0,297.7024 63.1862782,409.0112 149.568167,443.0592 C151.372361,443.769157 152.757463,445.258598 153.334648,447.10941 C153.911832,448.960222 153.618879,450.972883 152.538025,452.5824 L143.321226,466.3808 C137.332372,475.388637 136.78129,486.959343 141.886943,496.495491 C146.992596,506.031638 156.928098,511.988801 167.745743,512 L170.997225,512 C174.532154,512 231.467846,512 235.002775,512 L238.254257,512 C249.071902,511.988801 259.007404,506.031638 264.113057,496.495491 C269.21871,486.959343 268.667628,475.388637 262.678774,466.3808 L253.461975,452.5824 C252.381121,450.972883 252.088168,448.960222 252.665352,447.10941 C253.242537,445.258598 254.627639,443.769157 256.431833,443.0592 C342.813722,409.0112 406,297.7536 406,202.9824 Z M203,79.9746546 C167.536034,79.9048718 135.001258,99.6543489 118.68117,131.158434 C116.108173,136.34301 110.936376,139.732022 105.158301,140.019795 C99.380226,140.307568 93.8976435,137.449191 90.8228115,132.545901 C87.7479795,127.642611 87.5607794,121.459653 90.3333333,116.379117 C112.136761,74.2798451 155.611535,47.8884743 203,47.98453 C211.828615,47.98453 218.985622,55.1459673 218.985622,63.9797237 C218.985622,72.8134801 211.828615,79.9746546 203,79.9746546 L203,79.9746546 Z" id="Shape"></path>
            </g>
        </g>
    </g>
</svg>