<svg width="32" height="32" xmlns="http://www.w3.org/2000/svg" xmlns:xlink="http://www.w3.org/1999/xlink"><defs><linearGradient x1="50%" y1="0%" x2="50%" y2="100%" id="b"><stop stop-color="#4F5AD8" offset="0%"/><stop stop-color="#3B46C4" offset="100%"/></linearGradient><path d="M33.75 5.62099v24.73234c0 1.86196-1.51172 3.3726-3.375 3.3726h-5.99766v-12.4505h4.26094L29.25 16.5257h-4.87266v-3.03533c0-1.37714.3797-2.31163 2.35547-2.31163H29.25V6.93489c-.43594-.0562-1.92656-.1897-3.67031-.1897-3.62813 0-6.11719 2.21326-6.11719 6.28145v3.5061h-4.275v4.74973h4.28203v12.44346H5.625c-1.86328 0-3.375-1.51064-3.375-3.3726V5.621c0-1.86195 1.51172-3.3726 3.375-3.3726h24.75c1.86328 0 3.375 1.51065 3.375 3.3726z" id="a"/></defs><use fill="url(#b)" xlink:href="#a" transform="translate(-2 -1.79315)" fill-rule="evenodd"/></svg>
