<svg width="32" height="32" xmlns="http://www.w3.org/2000/svg"><defs><linearGradient x1="50%" y1="0%" x2="50%" y2="100%" id="a"><stop stop-color="#4F5AD8" offset="0%"/><stop stop-color="#3B46C4" offset="100%"/></linearGradient></defs><path d="M18 14.23937c-2.07114.00077-3.74958 1.67906-3.74906 3.74873.00052 2.06966 1.6798 3.74711 3.75093 3.74685 2.07115-.00025 3.75-1.67812 3.75-3.74779-.00155-2.06975-1.68064-3.74702-3.75187-3.7478zm8.76867-2.88076c-.38593-.97735-1.16015-1.75102-2.1382-2.13668C23.1539 8.63946 19.63828 8.77015 18 8.77015s-5.1504-.13561-6.63117.45178c-.97805.38566-1.75227 1.15933-2.1382 2.13668-.5822 1.47551-.45211 4.99214-.45211 6.62785 0 1.6357-.13008 5.14812.45492 6.62855.38593.97735 1.16015 1.75102 2.1382 2.13668 1.47656.58247 4.99219.45178 6.63117.45178 1.63899 0 5.14969.13561 6.63047-.45178.97805-.38566 1.75227-1.15933 2.1382-2.13668.58711-1.47551.45211-4.99214.45211-6.62785 0-1.6357.135-5.14742-.4521-6.62785l-.00282-.0007zM18 23.74868c-3.18427 0-5.76563-2.57952-5.76563-5.76152S14.81574 12.22565 18 12.22565c3.18427 0 5.76563 2.57952 5.76563 5.76151.00186 1.52862-.60498 2.99517-1.68665 4.07607C20.9973 23.14413 19.5297 23.75054 18 23.74868zm6.00328-10.41991c-.54438.00028-1.03532-.3272-1.24384-.8297-.20852-.5025-.09356-1.08105.29128-1.4658.38483-.38477.96373-.49996 1.4667-.29184.50297.2081.83095.69852.83095 1.24252a1.34158 1.34158 0 01-.39111.95233 1.34345 1.34345 0 01-.95117.3953l-.0028-.00281zM30.375 2.2484H5.625c-1.86396 0-3.375 1.50996-3.375 3.37259v24.73234c0 1.86264 1.51104 3.3726 3.375 3.3726h24.75c1.86396 0 3.375-1.50996 3.375-3.3726V5.621c0-1.86263-1.51104-3.3726-3.375-3.3726zm-1.20375 20.37608c-.0907 1.80082-.50203 3.39648-1.81758 4.70757-1.31555 1.3111-2.91094 1.73057-4.71094 1.81629-1.85695.10469-7.4243.10469-9.28125 0-1.8021-.09064-3.39328-.50238-4.71093-1.81629-1.31766-1.3139-1.7318-2.91026-1.81758-4.70757-.10477-1.85634-.10477-7.42041 0-9.27463.0907-1.80083.4971-3.39649 1.81758-4.70758 1.32047-1.3111 2.91586-1.72564 4.71093-1.81136 1.85696-.1047 7.4243-.1047 9.28125 0 1.80211.09063 3.3982.50237 4.71094 1.81628 1.31274 1.3139 1.7318 2.91026 1.81758 4.71109.10477 1.8493.10477 7.40846 0 9.2662z" transform="translate(-2 -1.79315)" fill="url(#a)" fill-rule="evenodd"/></svg>
