<svg width="32" height="32" xmlns="http://www.w3.org/2000/svg"><defs><linearGradient x1="50%" y1="0%" x2="50%" y2="100%" id="a"><stop stop-color="#4F5AD8" offset="0%"/><stop stop-color="#3B46C4" offset="100%"/></linearGradient></defs><path d="M31.5 2.2484H4.49297C3.25547 2.2484 2.25 3.2672 2.25 4.51787v26.93858c0 1.25067 1.00547 2.26948 2.24297 2.26948H31.5c1.2375 0 2.25-1.0188 2.25-2.26948V4.51787c0-1.25067-1.0125-2.26947-2.25-2.26947zM11.77031 29.22914H7.10156v-15.0221h4.67578v15.0221h-.00703zM9.43594 12.15539c-1.49766 0-2.70703-1.21554-2.70703-2.7051 0-1.48957 1.20937-2.7051 2.70703-2.7051 1.49062 0 2.70703 1.21553 2.70703 2.7051 0 1.49658-1.20938 2.7051-2.70703 2.7051zm19.83515 17.07375h-4.66875v-7.30729c0-1.7425-.03515-3.98387-2.42578-3.98387-2.43281 0-2.80547 1.89708-2.80547 3.8574v7.43376h-4.66875v-15.0221h4.47891v2.05167h.06328c.62578-1.18041 2.15156-2.42405 4.42266-2.42405 4.725 0 5.6039 3.11262 5.6039 7.15973v8.23475z" transform="translate(-2 -1.79315)" fill="url(#a)" fill-rule="evenodd"/></svg>
