<svg width="32" height="32" xmlns="http://www.w3.org/2000/svg" xmlns:xlink="http://www.w3.org/1999/xlink"><defs><linearGradient x1="50%" y1="0%" x2="50%" y2="100%" id="b"><stop stop-color="#4F5AD8" offset="0%"/><stop stop-color="#3B46C4" offset="100%"/></linearGradient><path d="M30.375 2.2484H5.625c-1.86328 0-3.375 1.51064-3.375 3.37259v24.73234c0 1.86196 1.51172 3.3726 3.375 3.3726h24.75c1.86328 0 3.375-1.51064 3.375-3.3726V5.621c0-1.86195-1.51172-3.3726-3.375-3.3726zm-3.43828 11.15766c.01406.19673.01406.4005.01406.59723 0 6.09174-4.64062 13.11095-13.12031 13.11095-2.61563 0-5.0414-.75883-7.08047-2.06571.37266.04215.73125.0562 1.11094.0562 2.1586 0 4.1414-.73072 5.72343-1.96734-2.025-.04216-3.72656-1.37011-4.31015-3.19694.71016.1054 1.35.1054 2.08125-.08431-2.10938-.4286-3.6914-2.28353-3.6914-4.5249v-.0562c.61171.34428 1.3289.55507 2.08124.58317-1.28471-.85394-2.05565-2.29446-2.05312-3.83632 0-.8572.225-1.64414.62578-2.32569 2.2711 2.79645 5.68125 4.62327 9.50625 4.82-.6539-3.12667 1.6875-5.66314 4.5-5.66314 1.3289 0 2.52422.55507 3.36797 1.45443 1.04062-.19674 2.03906-.58318 2.925-1.11015-.34453 1.06799-1.06875 1.96735-2.025 2.53647.92812-.09837 1.82812-.35834 2.65781-.71667-.62578.92043-1.41328 1.73548-2.31328 2.38892z" id="a"/></defs><use fill="url(#b)" xlink:href="#a" transform="translate(-2 -1.79315)" fill-rule="evenodd"/></svg>
