<svg xmlns="http://www.w3.org/2000/svg" width="118" height="21">
  <g fill="#FFF">
    <path d="M1.27 5.48H9.6C9.6 7.784.847 13.4.847 19.592V20.6h17.647v-5.04h-8.33c0-2.304 8.754-7.92 8.754-14.112V.44H1.27v5.04zM42.353.296c-6.353 0-10.87 4.32-10.87 10.224S36 20.888 42.352 20.888c6.353 0 10.87-4.464 10.87-10.368C53.084 4.472 48.566.296 42.354.296zm4.094 10.224c.282 2.448-1.553 4.608-3.953 4.752h-.141c-2.4-.144-4.377-2.304-4.235-4.752-.142-2.448 1.694-4.608 4.094-4.752h.14c2.4.144 4.236 2.016 4.095 4.464v.288zM75.67.44h-8.894V20.6h6.212v-5.184h2.683c5.082 0 8.047-2.88 8.047-7.632S80.753.44 75.67.44zm0 9.792h-2.823V5.48h2.4c1.13-.144 2.118.72 2.259 1.872v.432c.141 1.296-.706 2.304-1.835 2.448zM109.694.44h-6.776l-8.33 20.16h6.777l.988-2.88h7.341l.988 2.88h6.918L109.694.44zm-5.647 12.528l2.118-5.904 1.976 5.904h-4.094z" />
  </g>
</svg>
